<svg width="18" height="18" viewBox="0 0 18 18" fill="none" xmlns="http://www.w3.org/2000/svg">
<path d="M17.4311 16.2918L16.2008 12.6H14.8508L15.6005 16.2H2.40111L3.15081 12.6H1.80081L0.569613 16.2918C0.257313 17.2314 0.810813 18 1.80081 18H16.2008C17.1908 18 17.7443 17.2314 17.4311 16.2918ZM13.5008 4.5C13.5008 3.30653 13.0267 2.16193 12.1828 1.31802C11.3389 0.474106 10.1943 0 9.00081 0C7.80734 0 6.66275 0.474106 5.81883 1.31802C4.97492 2.16193 4.50081 3.30653 4.50081 4.5C4.50081 8.7975 9.00081 13.5 9.00081 13.5C9.00081 13.5 13.5008 8.7975 13.5008 4.5ZM6.57081 4.554C6.57081 3.2121 7.65801 2.1249 9.00081 2.1249C9.64517 2.1249 10.2631 2.38087 10.7188 2.8365C11.1744 3.29213 11.4304 3.91009 11.4304 4.55445C11.4304 5.19881 11.1744 5.81677 10.7188 6.2724C10.2631 6.72803 9.64517 6.984 9.00081 6.984C8.35634 6.984 7.73826 6.72798 7.28254 6.27227C6.82683 5.81656 6.57081 5.19848 6.57081 4.554Z" fill="#4E4B66"/>
</svg>
