<svg width="130" height="51" viewBox="0 0 130 51" fill="none" xmlns="http://www.w3.org/2000/svg">
<path d="M14.3987 40.5806H8.7955V17.546H0.351562V11.7823H22.823V17.546H14.3987V40.5806ZM31.5413 13.2282C31.5413 13.737 31.4434 14.2123 31.2473 14.6541C31.0646 15.0959 30.81 15.4842 30.4834 15.8189C30.1568 16.1402 29.7716 16.4013 29.3276 16.6021C28.8964 16.7895 28.4328 16.8832 27.9363 16.8832C27.4402 16.8832 26.9699 16.7895 26.5258 16.6021C26.0948 16.4013 25.7161 16.1402 25.3895 15.8189C25.0761 15.4842 24.8214 15.0959 24.6255 14.6541C24.4426 14.2123 24.3512 13.737 24.3512 13.2282C24.3512 12.7329 24.4426 12.2643 24.6255 11.8224C24.8214 11.3672 25.0761 10.979 25.3895 10.6576C25.7161 10.3229 26.0948 10.0619 26.5258 9.87444C26.9699 9.67362 27.4402 9.57321 27.9363 9.57321C28.4328 9.57321 28.8964 9.67362 29.3276 9.87444C29.7716 10.0619 30.1568 10.3229 30.4834 10.6576C30.81 10.979 31.0646 11.3672 31.2473 11.8224C31.4434 12.2643 31.5413 12.7329 31.5413 13.2282ZM30.6206 40.5806H25.2328V19.0722H30.6206V40.5806ZM53.0528 23.3498L49.1344 27.3864C48.9386 26.8241 48.6708 26.322 48.3311 25.8802C47.9917 25.425 47.6065 25.0435 47.1753 24.7355C46.7575 24.4276 46.3003 24.1933 45.8039 24.0326C45.3077 23.872 44.7981 23.7916 44.2757 23.7916C43.5444 23.7916 42.8521 23.9456 42.1992 24.2535C41.5591 24.5614 40.9973 24.9966 40.5142 25.5589C40.044 26.1078 39.6717 26.7639 39.3975 27.5271C39.1233 28.2902 38.9861 29.1336 38.9861 30.0574C38.9861 30.807 39.1233 31.51 39.3975 32.1662C39.6717 32.822 40.044 33.3979 40.5142 33.893C40.9973 34.3885 41.5591 34.7768 42.1992 35.0578C42.8521 35.3391 43.5444 35.4795 44.2757 35.4795C44.7981 35.4795 45.301 35.406 45.7843 35.2588C46.2677 35.1116 46.7181 34.904 47.1362 34.6361C47.5671 34.3551 47.9459 34.0203 48.2725 33.632C48.612 33.2303 48.8864 32.7886 49.0953 32.3066L53.0135 36.3432C52.5173 37.0663 51.9425 37.7156 51.2895 38.2911C50.6494 38.8669 49.9507 39.3555 49.1932 39.7572C48.4488 40.1589 47.6586 40.4603 46.8227 40.661C45.9999 40.8751 45.1509 40.9823 44.2757 40.9823C42.7999 40.9823 41.409 40.701 40.1028 40.1389C38.8098 39.5631 37.6735 38.78 36.694 37.7891C35.7272 36.7984 34.9633 35.6402 34.4016 34.3148C33.8401 32.9893 33.5592 31.5704 33.5592 30.0574C33.5592 28.4105 33.8401 26.871 34.4016 25.4384C34.9633 24.0058 35.7272 22.7607 36.694 21.703C37.6735 20.632 38.8098 19.7885 40.1028 19.1726C41.409 18.5568 42.7999 18.2489 44.2757 18.2489C45.1509 18.2489 46.0063 18.3626 46.8423 18.5903C47.6913 18.8179 48.4945 19.1526 49.2521 19.5944C50.0227 20.0228 50.7278 20.5516 51.3679 21.1809C52.0209 21.8102 52.5826 22.5331 53.0528 23.3498ZM61.0658 40.5806H55.678V10.5171H61.0658V29.475L69.0394 19.1124H75.1914L68.2363 28.0692L75.1914 40.5806H69.0394L64.7881 32.7686L61.0658 37.8294V40.5806ZM83.6157 13.2282C83.6157 13.737 83.5175 14.2123 83.3217 14.6541C83.1387 15.0959 82.8841 15.4842 82.5577 15.8189C82.2311 16.1402 81.8457 16.4013 81.4017 16.6021C80.9707 16.7895 80.5072 16.8832 80.0107 16.8832C79.5145 16.8832 79.0443 16.7895 78.6002 16.6021C78.169 16.4013 77.7903 16.1402 77.4639 15.8189C77.1504 15.4842 76.8958 15.0959 76.6997 14.6541C76.517 14.2123 76.4255 13.737 76.4255 13.2282C76.4255 12.7329 76.517 12.2643 76.6997 11.8224C76.8958 11.3672 77.1504 10.979 77.4639 10.6576C77.7903 10.3229 78.169 10.0619 78.6002 9.87444C79.0443 9.67362 79.5145 9.57321 80.0107 9.57321C80.5072 9.57321 80.9707 9.67362 81.4017 9.87444C81.8457 10.0619 82.2311 10.3229 82.5577 10.6576C82.8841 10.979 83.1387 11.3672 83.3217 11.8224C83.5175 12.2643 83.6157 12.7329 83.6157 13.2282ZM82.6947 40.5806H77.3072V19.0722H82.6947V40.5806ZM97.3101 40.5806C96.017 40.5806 94.8024 40.333 93.6661 39.8376C92.5298 39.3289 91.5307 38.6393 90.6686 37.769C89.8196 36.8853 89.1468 35.8612 88.6506 34.6964C88.1673 33.5317 87.9257 32.2865 87.9257 30.9611V24.5749H85.3201V19.1124H87.9257V10.5171H93.2547V19.1124H101.365V24.5749H93.2547V30.9611C93.2547 31.5369 93.359 32.079 93.5682 32.5879C93.7771 33.0831 94.0644 33.5182 94.43 33.893C94.7959 34.2681 95.2269 34.5692 95.7231 34.7968C96.2195 35.0112 96.7483 35.1181 97.3101 35.1181H101.365V40.5806H97.3101ZM120.761 40.5806H103.266L112.102 24.5749H103.266V19.1124H120.761L111.925 35.1181H120.761V40.5806Z" fill="#5F2EEA"/>
<path d="M127.796 23.9223C127.791 23.9199 127.787 23.9185 127.783 23.9163L126.033 22.8802C125.924 23.0074 125.775 23.092 125.612 23.1195C125.449 23.1471 125.282 23.1158 125.139 23.0312C124.996 22.9464 124.886 22.8135 124.827 22.6549C124.769 22.4963 124.766 22.322 124.82 22.1615L123.058 21.1182C123.01 21.0903 122.954 21.0827 122.901 21.0972C122.849 21.1117 122.804 21.147 122.776 21.1955L117.545 30.483L117.545 30.4835C117.532 30.5074 117.523 30.534 117.519 30.5614C117.516 30.5891 117.518 30.6168 117.525 30.6436C117.532 30.6705 117.544 30.6955 117.56 30.7177C117.577 30.7396 117.597 30.758 117.621 30.772L119.383 31.8139C119.492 31.6869 119.641 31.6025 119.804 31.5748C119.967 31.5474 120.134 31.5786 120.277 31.6631C120.42 31.7478 120.53 31.8805 120.588 32.0387C120.647 32.1969 120.65 32.3711 120.597 32.5315L122.337 33.56C122.344 33.5654 122.351 33.5712 122.358 33.5759C122.382 33.5899 122.408 33.5986 122.435 33.6025C122.461 33.606 122.489 33.6041 122.515 33.597C122.541 33.5899 122.565 33.5775 122.587 33.5605C122.608 33.5438 122.626 33.5227 122.64 33.4985V33.4988L127.871 24.2107C127.884 24.1867 127.893 24.1602 127.897 24.1327C127.9 24.1052 127.899 24.0773 127.891 24.0505C127.884 24.0237 127.872 23.9986 127.856 23.9766C127.84 23.9546 127.819 23.9362 127.796 23.9223ZM126.296 24.6433L122.218 31.8835C122.204 31.9077 122.186 31.9288 122.165 31.9455C122.143 31.9625 122.119 31.9748 122.093 31.982C122.067 31.9891 122.039 31.991 122.013 31.9875C121.986 31.9839 121.96 31.9749 121.936 31.9609L119.196 30.339C119.173 30.325 119.152 30.3067 119.136 30.2847C119.119 30.2628 119.107 30.2376 119.1 30.211C119.093 30.1841 119.091 30.1561 119.095 30.1287C119.099 30.1013 119.107 30.0747 119.121 30.0508L123.199 22.8105C123.226 22.762 123.271 22.7267 123.324 22.7122C123.376 22.6977 123.432 22.7053 123.48 22.7333L126.22 24.3552C126.244 24.3691 126.264 24.3875 126.281 24.4095C126.297 24.4314 126.309 24.4565 126.316 24.4833C126.323 24.51 126.325 24.5379 126.322 24.5654C126.318 24.5928 126.309 24.6193 126.296 24.6433Z" fill="#5F2EEA"/>
<path d="M124.099 27.1535L123.231 26.9879L123.109 26.1373C123.107 26.1248 123.102 26.1131 123.093 26.104C123.084 26.0948 123.073 26.0886 123.061 26.0862C123.049 26.0839 123.036 26.0854 123.025 26.0907C123.014 26.0959 123.005 26.1046 122.998 26.1156L122.577 26.863L121.731 26.7017C121.719 26.6994 121.706 26.701 121.695 26.7063C121.684 26.7116 121.674 26.7203 121.668 26.7313C121.662 26.7422 121.659 26.7548 121.66 26.7674C121.661 26.78 121.666 26.792 121.674 26.8016L122.234 27.4726L121.813 28.2197C121.807 28.231 121.804 28.2436 121.805 28.2562C121.806 28.2691 121.812 28.2812 121.82 28.2908C121.828 28.3004 121.839 28.3069 121.851 28.3099C121.863 28.313 121.875 28.3121 121.887 28.3075L122.666 27.9905L123.24 28.6785C123.248 28.6878 123.259 28.6946 123.271 28.6977C123.283 28.7007 123.295 28.6998 123.307 28.6955C123.318 28.6911 123.328 28.6831 123.335 28.6727C123.342 28.6623 123.346 28.6499 123.345 28.6373L123.33 27.7149L124.117 27.2669C124.128 27.2607 124.137 27.2513 124.142 27.2399C124.147 27.2286 124.149 27.2159 124.147 27.2034C124.145 27.191 124.139 27.1796 124.131 27.1706C124.122 27.1617 124.111 27.1557 124.099 27.1535Z" fill="#5F2EEA"/>
</svg>
